<?xml version="1.0" encoding="utf-8"?>
<!-- Generator: Adobe Illustrator 17.0.0, SVG Export Plug-In . SVG Version: 6.00 Build 0)  -->
<!DOCTYPE svg PUBLIC "-//W3C//DTD SVG 1.1//EN" "http://www.w3.org/Graphics/SVG/1.1/DTD/svg11.dtd">
<svg version="1.1" id="Layer_1" xmlns="http://www.w3.org/2000/svg" xmlns:xlink="http://www.w3.org/1999/xlink" x="0px" y="0px"
	 width="40px" height="50px" viewBox="0 0 40 50" enable-background="new 0 0 40 50" xml:space="preserve">
<path fill="#00FFFF" d="M26.812,19.836V8.356l3.886,3.886l2.828-2.828l-6.714-6.714V2.661h-4v0.056l-0.032-0.032l-6.729,6.729
	l2.828,2.828l3.933-3.933v11.538c-7.395,0.999-13.119,7.336-13.119,15C9.694,43.202,16.491,50,24.847,50S40,43.202,40,34.847
	C40,27.159,34.24,20.805,26.812,19.836z M24.847,46c-6.15,0-11.153-5.003-11.153-11.153c0-6.149,5.003-11.153,11.153-11.153
	c6.15,0,11.153,5.003,11.153,11.153C36,40.997,30.997,46,24.847,46z"/>
</svg>
