<?xml version="1.0" encoding="utf-8"?>
<!-- Generator: Adobe Illustrator 17.0.0, SVG Export Plug-In . SVG Version: 6.00 Build 0)  -->
<!DOCTYPE svg PUBLIC "-//W3C//DTD SVG 1.1//EN" "http://www.w3.org/Graphics/SVG/1.1/DTD/svg11.dtd">
<svg version="1.1" id="Layer_1" xmlns="http://www.w3.org/2000/svg" xmlns:xlink="http://www.w3.org/1999/xlink" x="0px" y="0px"
	 width="40px" height="50px" viewBox="0 0 40 50" enable-background="new 0 0 40 50" xml:space="preserve">
<path fill="#00FFFF" d="M27.15,25.629l8.118-8.118v5.496l3.999,0v-9.495l0.028-0.028l-2.828-2.828l-0.04,0.04V10.65l-9.516,0v3.999
	h5.562l-8.159,8.159c-5.935-4.523-14.464-4.089-19.883,1.33c-5.907,5.909-5.908,15.522,0.001,21.43s15.522,5.908,21.43,0
	C31.297,40.133,31.717,31.567,27.15,25.629z M7.26,42.74c-4.349-4.349-4.349-11.424,0-15.773c4.348-4.348,11.424-4.349,15.773,0
	s4.349,11.424,0,15.773S11.608,47.089,7.26,42.74z"/>
</svg>
