<?xml version="1.0" encoding="utf-8"?>
<!-- Generator: Adobe Illustrator 17.0.0, SVG Export Plug-In . SVG Version: 6.00 Build 0)  -->
<!DOCTYPE svg PUBLIC "-//W3C//DTD SVG 1.1//EN" "http://www.w3.org/Graphics/SVG/1.1/DTD/svg11.dtd">
<svg version="1.1" id="Layer_1" xmlns="http://www.w3.org/2000/svg" xmlns:xlink="http://www.w3.org/1999/xlink" x="0px" y="0px"
	 width="40px" height="50px" viewBox="0 0 40 50" enable-background="new 0 0 40 50" xml:space="preserve">
<path fill="#66FF00" d="M13.188,32.825v5.659H5.671v4h7.517V50h4v-7.517h7.517v-4h-7.517v-5.669c7.395-0.999,13.119-7.336,13.119-15
	C30.306,9.459,23.509,2.661,15.153,2.661S0,9.459,0,17.814C0,25.502,5.76,31.856,13.188,32.825z M15.153,6.661
	c6.15,0,11.153,5.003,11.153,11.153c0,6.149-5.003,11.153-11.153,11.153S4,23.964,4,17.814S9.003,6.661,15.153,6.661z"/>
</svg>
