<?xml version="1.0" encoding="utf-8"?>
<!-- Generator: Adobe Illustrator 17.0.0, SVG Export Plug-In . SVG Version: 6.00 Build 0)  -->
<!DOCTYPE svg PUBLIC "-//W3C//DTD SVG 1.1//EN" "http://www.w3.org/Graphics/SVG/1.1/DTD/svg11.dtd">
<svg version="1.1" id="Layer_1" xmlns="http://www.w3.org/2000/svg" xmlns:xlink="http://www.w3.org/1999/xlink" x="0px" y="0px"
	 width="350px" height="95px" viewBox="0 0 350 95" enable-background="new 0 0 350 95" xml:space="preserve">
<g opacity="0.1">
	<path fill="#FFFFFF" d="M205.915,30.327c-1.415,0.328-3.541-0.667-3.263-0.859c0.721-0.495,2.36-1.371,3.941-0.788
		c0.269,0.101,0.379,0.373,0.411,0.728C207.072,30.235,206.424,30.251,205.915,30.327 M210.789,31.206
		c-0.737-1.008-2.129-2.391-0.973-3.731c0.603-0.474,0.783-0.833,0.853-1.489c0.246-2.273,0.131-3.262-0.177-4.514
		c0.051-0.107,0.284,0.031,0.367-0.376c0.23-1.095-0.367-1.305-0.367-1.305c0.451-0.408,0.409-1.934-0.312-1.918
		c0.393-0.668,0.057-1.744-0.65-1.516c0,0,0.358-0.185,0.311-0.674c-0.096-0.967-1.44-0.018-1.092-0.659
		c0.183-0.337-0.576-1.48-0.962-0.593c-0.226-0.16,0.16-0.714-0.25-0.884c-0.241,0.009-0.493,0.208-0.804,0.383
		c-0.089-0.369,0.282-0.561-0.173-1.08c-0.618-0.44-0.657,0.216-1.085,0.457c-0.79-0.185,1.076-0.662-0.599-1.39
		c-0.429,1.053-0.393,0.274-0.581,0.129c-0.113-0.086-0.37,0.19-0.843,0.683c0.245-0.697,0.812-1.553-0.014-1.305
		c-0.942,0.435-0.391-0.134-0.402-0.204c0.814-0.379-0.751-1.282-0.69-0.327c-0.017,0.645-1.373,1.198-0.99,0.417
		c0.252-0.985,1.422,0.521,0.415-1.233c-0.629,0.734-1.14,1.218-1.245,1.488c-0.487,2.008-0.217,0.178-0.727,0.15
		c0.678-0.468,1.548-1.294,1.293-1.834c-0.734-0.056-2.423,1.18-1.354,1.283c-0.08,0.393-0.703,0.855-1.06,0.172
		c0.592-0.161,1.614-2.207,0.344-1.6c-0.119,0.127-0.119,0.489-0.346,0.833c-0.304-0.277-0.061-0.708-0.166-0.888
		c-1.013-0.958-0.66,1.541-0.622,2.091c-1.324-0.842-0.083-0.607-0.424-2.004c-1.096,0.204-1.393,0.685-1.208,1.949
		c-0.153,0.304-0.428,1.003-0.609,0.145c0.592-0.799,0.538-1.946-0.503-1.983c1.674,15.726,1.551,31.619-0.832,47.201l-0.132,0.833
		c1.203-0.009,2.944-0.383,4.202-0.449c3.626,0.126,3.55,0.612,9.547,0.532c1.38-0.141,1.765-0.37,2.213-0.351
		c-0.437-1.908-3.467-0.822-5.003-1.379c-2.606-0.254-3.053-1.865-3.881-3.057c-0.373-0.662-0.919-1.496-0.902-2.599
		c-0.205-1.431,0.066-2.19,0.038-3.592c0.119-1.035,1.259-0.827,1.973-0.735c2.254,0.228,6.045-0.151,7.045-0.457
		c1.426-0.44,1.457-1.352,0.498-2.709c-0.21-0.672-0.171-1.083,0.119-1.681c0.393-0.457,0.901-0.758,0.522-1.32
		c0,0-3.274-0.708-1.02-1.097c2.308-0.398,1.542-1.367,1.542-1.367s-0.381-0.977-0.739-1.71c-0.258-0.536,1.924-0.706,2.158-1.56
		C213.02,33.647,211.364,32.023,210.789,31.206"/>
	<path fill="#FFFFFF" d="M194.346,10.898c-0.083-0.739,0.794-1.019,0.794-1.019c-0.305-3.007-0.585-5.233-1.013-8.269h-51.252
		v92.218h41.642h0.007c1.919-5.071,3.569-10.065,4.986-14.998c-0.433,0.045-0.882,0.073-1.357,0.073
		c-1.808,0-3.061-0.363-4.562-0.701v-3.364c1.156,0.37,3.035,1.009,4.716,1.009c1.118,0,2.239-0.516,2.239-1.562
		c0-0.952-1.335-1.536-3.265-2.635c-1.751-0.895-3.968-2.732-3.968-5.066c0-2.754,2.687-4.284,6.302-4.284
		c1.176,0,2.591,0.174,3.749,0.315c0.295-1.571,0.571-3.137,0.816-4.705l-0.002-0.013c-1.404-0.004-2.718-0.064-4.273-0.045
		c-1.103-0.452-2.705,0-4.044,0c-0.603,0.02-1.051-0.494-1.627-0.206c-0.395,0.123-3.45,0.228-3.763-0.106
		c1.312-1.809,7.278-0.84,8.225-2.672c1.682-0.95,1.682-2.458,1.972-3.94c1.055-0.514,0.498-1.197,0.734-1.796
		c-0.185-0.74-0.119-1.74,0.067-2.38l-0.68,0.786c-0.313,0.08-0.671,0.278-0.931-0.174c0.682-1.137-0.734-0.902-0.734-1.688
		c1.155-0.598,0.252-1.178,0.388-1.985c-0.762,0.331-0.728,1.115-1.489,1.186c-0.791-0.478,0.273-1.622-0.199-2.223
		c-0.254,0.206-0.836-0.342-1.069-0.05c0.498,0.32,0.462,1.229,0.306,1.619c-0.281,0.103-0.589,0.098-0.861-0.272
		c0,0-0.14,0.402-0.593,0.489c-0.48-0.347,0.325-1.16,0.014-1.494c-0.297,0.204-0.327,0.334-0.679,0.361
		c-0.402-0.176-0.297-0.959-0.322-1.393c-0.265,0.105-0.222,0.224-0.566,0.479c-0.364,0.196-0.877,0.566-1.948,0.114
		c0.745-1.567,1.707-1.021,2.495-1.476c0.183-0.457,0.968-1.089,0.419-1.485c-1.263,0.247-1.263,1.608-2.809,1.384
		c-0.545-1.19,1.28-1.622,0.606-2.179c0,0-1.116-0.674-1.106-0.267c0.018,1.165-0.072,1.946-1.031,2.254
		c-0.466-0.251-0.439-0.891-0.423-1.352c0.314-0.867-0.737-0.439-0.58-1.715c-0.21,0.063-0.777,1.044-1.384,0.741
		c-0.29-0.148,0.269-1.254,0.269-1.254c-0.423-0.308-1.103-0.166-1.523-0.495c-0.238-0.763,0.866-0.659,1.13-1.172
		c-0.685-0.701-1.13,0.493-1.895,0c0.053-0.145,0.646-0.364,0.574-0.866c-0.168-0.353-1.244,0.232-1.297-0.234
		c-0.08-0.351,0.869-0.799,1.185-1.027l-0.512-0.056c-1.071,0.29-1.507-0.119-0.175-0.692c-1.116-1.196,0.728-0.857,1.254-1.186
		c-1.537-0.356-2.403-1.173-2.017-1.679c0.412-0.541,1.879,0.218,1.879,0.218s-0.638-0.683-1.034-1.334
		c-0.409-0.683,1.671-0.668,2.044-1.612l-0.46-0.147c-0.411,0.04-0.252-0.669-0.846,0.214c-0.365,0.542-1.037,0.272-1.589-0.008
		c0-0.914,0.699-1.482,1.589-1.919c1.353-0.277,1.061-0.51,1.749-0.672c0,0-0.396-0.379-0.662-0.288
		c-0.27,0.091-0.522,0.094-0.522,0.094c-1.401,0.183-2.343,0.185-3.234-0.514c0.134-0.608,1.016-0.531,1.567-0.658
		c-0.451-0.418-0.451-1.056-0.272-1.201c0.568-0.145,1.254,1.035,1.516,1.248c0,0-0.312-0.828,0.208-1.22
		c0.723,0.29,0.467,1.555,1.609,1.497c-0.924-1.218-0.66-1.473,0.694-0.854c0.183-0.514-1.113-0.719-1.283-1.05
		c-0.172-0.327,0.823-0.709,0.823-0.709s-1.897-0.337-2.264-1.745c-0.098-0.643,2.473-0.043,3.328,1.314
		c0.763,0.064,0.983-0.123,1.588-0.351c-0.551-0.433-0.919-0.486-1.203-1.546l-0.268,0.249c0,0-0.21,0.192-0.861-0.045
		c-0.479-0.205-1.069-0.681-0.989-1.28c0.538-0.159,1.555-0.451,1.932,0.292c-0.015,0.015,0.101,0.218,0.088,0.232
		c0.01,0.061,0.241,0.056,0.238,0.029c0.877-0.232,1.58,0.29,2.457-0.115c-0.16-0.433-0.085-0.526-0.688-0.813
		c-0.312,0.173-0.372,0.163-0.823,0.217c-0.995-0.206-1.818-0.87-2.159-1.73c0.209-0.166,0.51,0.161,0.962,0.041
		c0.814,0.127,1.684,0.243,1.815,1.008c0.368-0.227,0.577-0.636,1.702-0.744c-0.891-0.203-1.455-0.246-1.541-0.914
		c0.659-0.718,1.693-0.276,2.471,0.363c0.06,0.019-0.201-0.352-0.143-0.334l-0.467-0.638c-0.29-0.452-0.08-0.969,0.367-1.298
		c0.23,0.049,0.526,0.454,0.625,0.905c0.933,1.047,0.154-0.901,1.325-1.09c0.723,0.872-0.351,1.076-0.282,1.466
		c0.063,0.216,0.297,0.423,0.853,0.512c0.078-0.536,0.544-0.847,0.571-1.464c-0.454-0.697-0.024-1.878,1.078-2.14
		c0.98,0.929-0.962,2.005,0.266,2.163c1.12-0.509-0.133-1.854,1.219-2.455c0.454,0.815-0.107,1.268,0.064,1.532
		c0.126,0.192,0.666,0.279,0.85,0.154c-0.575-0.538-0.185-1.422-0.027-1.949c0.369-0.061,0.617,0.872,0.536,1.219
		c1.169-0.683,0.137,0.541,1.609,0.455c0.324-0.741-0.921-0.973-0.44-2.064c1.387-0.351,1.132,0.585,1.132,1.207
		c0-0.023,0.424,0.608,0.424,0.608l0.38-0.187C194.784,11.902,194.438,11.708,194.346,10.898"/>
</g>
<g opacity="0.3">
	<path fill="#FFFFFF" d="M205.915,30.327c0.509-0.075,1.158-0.091,1.089-0.919c-0.032-0.355-0.142-0.627-0.411-0.728
		c-1.581-0.582-3.22,0.293-3.941,0.788C202.373,29.659,204.5,30.655,205.915,30.327z"/>
	<path fill="#FFFFFF" d="M238.95,1.61h-44.822c0.428,3.036,0.708,5.262,1.013,8.269c0,0-0.877,0.281-0.794,1.019
		c0.091,0.81,0.438,1.004,0.438,1.004l-0.38,0.187c0,0-0.424-0.631-0.424-0.608c0-0.622,0.255-1.558-1.132-1.207
		c-0.482,1.09,0.764,1.322,0.44,2.064c-1.472,0.086-0.44-1.138-1.609-0.455c0.081-0.346-0.167-1.279-0.536-1.219
		c-0.158,0.527-0.548,1.41,0.027,1.948c-0.185,0.124-0.725,0.037-0.85-0.154c-0.171-0.264,0.39-0.717-0.064-1.532
		c-1.351,0.601-0.099,1.946-1.219,2.455c-1.228-0.159,0.714-1.235-0.266-2.163c-1.102,0.262-1.532,1.443-1.078,2.14
		c-0.027,0.617-0.493,0.929-0.571,1.464c-0.556-0.089-0.79-0.297-0.853-0.512c-0.069-0.391,1.005-0.594,0.282-1.466
		c-1.171,0.189-0.393,2.138-1.325,1.09c-0.099-0.452-0.395-0.856-0.625-0.905c-0.446,0.33-0.657,0.846-0.367,1.298l0.467,0.638
		c-0.058-0.018,0.203,0.353,0.143,0.334c-0.779-0.639-1.813-1.081-2.471-0.363c0.086,0.669,0.65,0.711,1.541,0.914
		c-1.125,0.108-1.335,0.516-1.702,0.744c-0.13-0.765-1.001-0.882-1.815-1.008c-0.451,0.12-0.753-0.208-0.962-0.041
		c0.341,0.86,1.165,1.525,2.159,1.73c0.451-0.054,0.512-0.045,0.823-0.217c0.603,0.288,0.528,0.38,0.688,0.813
		c-0.877,0.405-1.579-0.117-2.457,0.115c0.002,0.028-0.229,0.032-0.238-0.029c0.013-0.014-0.103-0.217-0.088-0.232
		c-0.377-0.744-1.394-0.451-1.932-0.292c-0.08,0.599,0.509,1.076,0.989,1.28c0.651,0.236,0.861,0.045,0.861,0.045l0.268-0.249
		c0.284,1.06,0.651,1.114,1.203,1.546c-0.605,0.227-0.826,0.415-1.588,0.351c-0.855-1.357-3.426-1.957-3.328-1.314
		c0.368,1.409,2.264,1.745,2.264,1.745s-0.995,0.381-0.823,0.709c0.17,0.33,1.466,0.536,1.283,1.05
		c-1.354-0.619-1.618-0.364-0.694,0.854c-1.142,0.058-0.886-1.207-1.609-1.497c-0.52,0.393-0.208,1.22-0.208,1.22
		c-0.263-0.212-0.948-1.393-1.516-1.248c-0.18,0.145-0.18,0.783,0.272,1.201c-0.552,0.127-1.433,0.05-1.567,0.658
		c0.891,0.699,1.833,0.697,3.234,0.514c0,0,0.252-0.002,0.522-0.094c0.266-0.091,0.662,0.288,0.662,0.288
		c-0.689,0.162-0.396,0.395-1.749,0.672c-0.89,0.437-1.589,1.006-1.589,1.919c0.552,0.281,1.223,0.55,1.589,0.008
		c0.594-0.883,0.435-0.174,0.846-0.213l0.46,0.147c-0.373,0.943-2.453,0.929-2.044,1.612c0.396,0.651,1.034,1.334,1.034,1.334
		s-1.466-0.758-1.879-0.218c-0.386,0.506,0.48,1.323,2.017,1.679c-0.526,0.329-2.37-0.01-1.254,1.186
		c-1.331,0.573-0.896,0.982,0.175,0.692l0.512,0.056c-0.316,0.227-1.265,0.676-1.185,1.027c0.053,0.466,1.13-0.119,1.297,0.234
		c0.073,0.502-0.521,0.721-0.574,0.866c0.765,0.493,1.209-0.701,1.895,0c-0.264,0.513-1.368,0.409-1.13,1.172
		c0.419,0.33,1.1,0.187,1.523,0.495c0,0-0.559,1.106-0.269,1.254c0.608,0.303,1.174-0.678,1.384-0.741
		c-0.157,1.276,0.894,0.848,0.58,1.715c-0.016,0.461-0.042,1.101,0.423,1.352c0.959-0.308,1.05-1.089,1.031-2.254
		c-0.009-0.407,1.106,0.267,1.106,0.267c0.674,0.558-1.151,0.989-0.606,2.179c1.546,0.223,1.546-1.138,2.809-1.384
		c0.549,0.395-0.236,1.028-0.419,1.485c-0.788,0.455-1.75-0.091-2.495,1.476c1.071,0.452,1.584,0.082,1.948-0.114
		c0.344-0.255,0.301-0.374,0.566-0.479c0.025,0.434-0.08,1.218,0.322,1.393c0.352-0.027,0.382-0.157,0.679-0.361
		c0.312,0.334-0.494,1.147-0.014,1.494c0.453-0.087,0.593-0.489,0.593-0.489c0.272,0.37,0.58,0.375,0.861,0.272
		c0.156-0.391,0.191-1.299-0.306-1.619c0.233-0.292,0.815,0.256,1.069,0.05c0.472,0.601-0.593,1.745,0.199,2.223
		c0.761-0.07,0.727-0.854,1.489-1.186c-0.136,0.806,0.767,1.387-0.388,1.985c0,0.786,1.417,0.55,0.734,1.688
		c0.26,0.452,0.618,0.254,0.931,0.174l0.68-0.786c-0.186,0.64-0.252,1.64-0.067,2.38c-0.237,0.599,0.321,1.282-0.734,1.796
		c-0.29,1.482-0.29,2.99-1.972,3.94c-0.947,1.832-6.912,0.863-8.225,2.672c0.313,0.334,3.368,0.229,3.763,0.106
		c0.576-0.288,1.024,0.226,1.627,0.206c1.339,0,2.941-0.453,4.044,0c1.555-0.019,2.869,0.041,4.273,0.045l0.002,0.013l0.131-0.833
		c2.383-15.582,2.507-31.475,0.832-47.201c1.04,0.037,1.094,1.184,0.503,1.983c0.181,0.859,0.456,0.159,0.609-0.145
		c-0.185-1.263,0.112-1.745,1.208-1.948c0.341,1.397-0.9,1.162,0.424,2.004c-0.038-0.549-0.391-3.049,0.622-2.091
		c0.105,0.18-0.138,0.611,0.166,0.888c0.227-0.344,0.227-0.706,0.346-0.833c1.27-0.607,0.248,1.439-0.344,1.6
		c0.357,0.683,0.98,0.22,1.06-0.172c-1.069-0.103,0.62-1.339,1.354-1.283c0.255,0.54-0.615,1.366-1.293,1.834
		c0.51,0.029,0.24,1.859,0.727-0.15c0.105-0.27,0.616-0.754,1.245-1.488c1.007,1.754-0.162,0.248-0.414,1.233
		c-0.384,0.781,0.973,0.228,0.99-0.417c-0.062-0.955,1.503-0.051,0.69,0.327c0.012,0.07-0.54,0.638,0.402,0.204
		c0.826-0.248,0.259,0.608,0.014,1.305c0.473-0.493,0.729-0.77,0.843-0.683c0.188,0.145,0.152,0.924,0.581-0.129
		c1.675,0.728-0.191,1.205,0.599,1.39c0.428-0.241,0.467-0.897,1.085-0.457c0.456,0.52,0.084,0.712,0.173,1.08
		c0.311-0.175,0.563-0.374,0.804-0.383c0.41,0.17,0.024,0.724,0.25,0.884c0.386-0.886,1.144,0.257,0.962,0.593
		c-0.348,0.641,0.996-0.308,1.092,0.659c0.047,0.489-0.311,0.674-0.311,0.674c0.707-0.228,1.043,0.848,0.65,1.516
		c0.721-0.016,0.763,1.51,0.312,1.918c0,0,0.596,0.21,0.367,1.305c-0.083,0.407-0.315,0.269-0.367,0.376
		c0.308,1.252,0.423,2.241,0.177,4.514c-0.07,0.657-0.25,1.016-0.853,1.489c-1.156,1.34,0.236,2.722,0.973,3.731
		c0.575,0.816,2.231,2.441,1.705,3.171c-0.234,0.854-2.416,1.024-2.158,1.56c0.357,0.732,0.739,1.71,0.739,1.71
		s0.766,0.968-1.542,1.367c-2.254,0.389,1.02,1.097,1.02,1.097c0.379,0.562-0.129,0.863-0.522,1.32
		c-0.29,0.598-0.329,1.009-0.119,1.681c0.959,1.357,0.929,2.269-0.498,2.709c-1,0.306-4.791,0.685-7.045,0.457
		c-0.714-0.091-1.854-0.299-1.973,0.735c0.028,1.403-0.243,2.161-0.038,3.592c-0.017,1.103,0.529,1.937,0.902,2.599
		c0.828,1.192,1.275,2.803,3.881,3.057c1.536,0.557,4.566-0.528,5.003,1.379c-0.448-0.019-0.832,0.21-2.213,0.351
		c-5.997,0.08-5.921-0.406-9.547-0.532c-1.258,0.066-3,0.44-4.202,0.449c-0.246,1.568-0.522,3.134-0.816,4.705
		c-0.165-0.02-0.344-0.041-0.518-0.062c0.178,0.022,0.362,0.043,0.53,0.064l-0.603,3.06c-0.937-0.157-1.508-0.322-2.444-0.322
		c-1.646,0-2.796,0.4-2.796,1.229c0,0.95,1.552,1.715,3.297,2.667c1.656,0.924,3.939,2.15,3.939,4.91
		c0,3.033-2.627,4.741-6.614,4.741c0.475,0,0.924-0.028,1.357-0.073c-1.417,4.933-3.066,9.928-4.986,14.998h44.82
		c7.458-19.681,10.998-38.205,11.647-56.639V24.475C240.733,16.902,240.03,9.304,238.95,1.61z"/>
	<rect x="194.181" y="57.909" fill="#FFFFFF" width="0" height="0"/>
</g>
<path fill="#FFFFFF" d="M9.258,35.995c0-2.36,0.549-4.088,1.652-5.191c1.1-1.099,2.79-1.652,5.073-1.652h2.714v-8.376h-1.18
	c-2.124,0-4.187,0.278-6.194,0.826c-2.006,0.553-3.757,1.416-5.249,2.595c-1.575,1.261-2.814,2.931-3.717,5.014
	C1.45,31.297,1,33.872,1,36.939v15.218h8.258L9.258,35.995z M33.09,52.747c3.695,0,6.762-0.903,9.202-2.714
	c2.437-1.729,4.088-4.247,4.955-7.551h-5.899c-0.943,0-1.673,0.198-2.183,0.59c-0.513,0.395-0.808,0.708-0.885,0.944
	c-0.236,0.236-0.453,0.454-0.648,0.649c-0.199,0.199-0.413,0.336-0.649,0.413c-0.944,0.552-2.087,0.826-3.421,0.826
	c-2.047,0-3.58-0.627-4.601-1.887c-1.103-1.18-1.693-2.987-1.77-5.427h20.412c0.076-0.155,0.117-0.43,0.117-0.826v-1.297
	c0-5.191-1.261-9.24-3.776-12.152c-2.595-2.832-6.252-4.248-10.971-4.248c-4.483,0-7.985,1.458-10.5,4.366
	c-2.44,2.831-3.658,6.765-3.658,11.797c0,5.271,1.257,9.32,3.776,12.151C25.105,51.293,28.607,52.747,33.09,52.747z M28.961,28.562
	c1.099-1.099,2.515-1.652,4.247-1.652c1.887,0,3.342,0.553,4.365,1.652c0.944,1.025,1.492,2.595,1.652,4.719H27.191
	C27.268,31.238,27.858,29.665,28.961,28.562z M83.466,12.694c-0.788-0.746-1.732-1.121-2.831-1.121h-4.248v40.584h8.258v-36.69
	C84.646,14.366,84.251,13.443,83.466,12.694z M61.876,32.454c-0.708,0.081-1.339,0.178-1.887,0.295
	c-0.553,0.118-1.025,0.177-1.415,0.177c-2.991,0.472-5.449,1.416-7.374,2.831c-1.928,1.416-2.891,3.775-2.891,7.078
	c0,3.539,1.062,6.076,3.186,7.609c2.122,1.534,4.6,2.301,7.432,2.301c1.415,0,3.046-0.099,4.896-0.296
	c1.846-0.197,3.598-0.725,5.249-1.592c1.571-0.784,2.929-2.065,4.071-3.835c1.138-1.768,1.71-4.225,1.71-7.373V28.915
	c0-2.831-1.143-5.031-3.421-6.607c-2.204-1.492-5.508-2.241-9.91-2.241c-3.935,0-6.961,0.907-9.085,2.714
	c-1.887,1.575-2.99,3.579-3.303,6.016h7.905c0.39-0.862,1.02-1.453,1.887-1.769c0.862-0.313,1.846-0.472,2.949-0.472
	c1.02,0,2.141,0.176,3.363,0.53c1.218,0.354,1.83,1.121,1.83,2.301C67.069,30.962,65.335,31.983,61.876,32.454z M67.186,36.349
	v2.948c0,2.205-0.632,3.935-1.888,5.191c-1.26,1.261-2.991,1.888-5.191,1.888c-1.339,0-2.36-0.312-3.067-0.943
	c-0.709-0.708-1.062-1.652-1.062-2.832c0-0.863,0.273-1.729,0.826-2.595c0.627-0.627,1.652-1.138,3.067-1.533l2.714-0.591
	C64.549,37.409,66.082,36.901,67.186,36.349z M65.719,76.381c0,0-3.842,2.919-8.042,2.919c-5.276,0-8.144-4.199-8.144-10.347
	l0.204-0.102c0,0,2.664,1.434,5.635,1.434c4.508,0,9.886-1.844,9.886-6.967c0-3.483-2.664-7.324-9.425-7.324
	c-7.479,0-12.141,7.171-12.141,14.24c0,7.53,5.072,12.908,11.935,12.908c8.606,0,10.348-6.505,10.348-6.505L65.719,76.381z
	 M55.167,58.351c2.92,0,3.995,2.51,3.995,4.917c0,3.176-2.51,4.456-4.816,4.456c-2.151,0-4.764-0.82-4.764-1.229
	C49.583,64.549,51.53,58.351,55.167,58.351z M46.777,57.018v-0.256c0,0-0.769-0.41-2.356-0.41c-4.457,0-1.793,1.793-8.862,22.13
	c-2.254-5.686-5.687-15.573-6.762-19.978c-0.41-1.588-2.202-2.151-3.944-2.151c-1.793,0-2.817,0.205-3.842,0.41v0.256
	c0.973,0.82,1.537,1.998,2.049,3.073c1.844,4.098,5.02,13.934,6.455,18.596c0.717,2.459,2.817,3.431,4.507,3.841l-0.82,1.895
	c-1.69,3.842-4.252,5.123-7.223,5.123c-1.229,0-2.561-0.205-3.944-0.513c0.154,3.176-0.256,5.123,3.279,5.123
	c4.201,0,8.452-3.279,11.218-11.014l7.582-21.412C45.444,57.889,46.777,57.018,46.777,57.018z M71.049,62.141
	c0-2.254,1.69-3.894,3.995-3.894c3.893,0,6.404,4.303,6.404,4.303h0.256c0.922-0.973,1.844-2.613,1.844-3.688
	c0-2.1-5.687-2.868-7.735-2.868c-4.764,0-9.477,2.715-9.477,7.632c0,8.708,13.318,7.94,13.318,13.216
	c0,1.793-1.178,3.535-4.507,3.535c-5.02,0-7.991-3.688-7.991-3.688h-0.257c-0.41,0.717-1.024,1.998-1.024,2.817
	c0,2.202,5.328,3.637,8.709,3.637c4.764,0,9.784-2.715,9.784-7.888C84.367,66.084,71.049,67.366,71.049,62.141z M23.026,76.381
	c0,0-3.842,2.919-8.042,2.919c-5.277,0-8.145-4.199-8.145-10.347l0.205-0.102c0,0,2.664,1.434,5.635,1.434
	c4.508,0,9.887-1.844,9.887-6.967c0-3.483-2.664-7.324-9.425-7.324c-7.479,0-12.14,7.171-12.14,14.24
	c0,7.53,5.071,12.908,11.935,12.908c8.606,0,10.348-6.505,10.348-6.505L23.026,76.381z M12.474,58.351
	c2.92,0,3.996,2.51,3.996,4.917c0,3.176-2.51,4.456-4.815,4.456c-2.152,0-4.764-0.82-4.764-1.229
	C6.891,64.549,8.837,58.351,12.474,58.351z"/>
<rect x="110.949" y="1.246" fill="#FFFFFF" width="1.337" height="92.911"/>
<g>
	<path fill="#FFFFFF" d="M204.89,78.902c4.965,0,8.277-3.759,8.277-8.392c0-4.879-3.345-8.211-8.277-8.211
		c-4.968,0-8.342,3.243-8.342,8.211C196.548,75.387,199.986,78.902,204.89,78.902 M200.767,70.51c0-2.913,1.343-4.845,4.124-4.845
		c2.712,0,4.057,1.777,4.057,4.845c0,2.85-1.31,5.03-4.057,5.03C202.266,75.54,200.767,73.394,200.767,70.51"/>
	<path fill="#FFFFFF" d="M225.153,65.72c-0.938-0.151-1.843-0.366-2.783-0.366c-1.645,0-2.793,0.4-2.793,1.229
		c0,0.95,1.553,1.715,3.296,2.667c1.656,0.924,3.934,2.15,3.934,4.91c0,3.033-2.622,4.741-6.609,4.741
		c-1.81,0-3.059-0.363-4.561-0.701v-3.364c1.157,0.37,3.034,1.009,4.717,1.009c1.118,0,2.236-0.516,2.236-1.562
		c0-0.952-1.335-1.536-3.265-2.635c-1.75-0.895-3.969-2.732-3.969-5.066c0-2.757,2.687-4.284,6.302-4.284
		c1.181,0,2.339,0.119,3.495,0.265V65.72z"/>
	<path fill="#FFFFFF" d="M155.514,78.373c0.096-1.777,0.16-3.159,0.16-5.641v-8.524c0-3.069-0.187-5.402-0.627-7.668h5.475
		c0,1.567-0.156,3.743-0.156,6.195v7.974c0,2.238,0.343,5.579,0.627,7.665H155.514z"/>
	<path fill="#FFFFFF" d="M169.5,85.067c-0.31-2.36-0.31-4.996-0.31-5.857v-1.834c1.127,0.674,2.318,1.526,4.853,1.526
		c4.29,0,7.196-3.362,7.196-7.995c0-5.028-3-8.608-7.385-8.608c-3.039,0-4.287,1.5-5.291,2.631
		c-0.217-0.825-0.315-1.528-0.563-2.234l-3.972,0.31c0.5,2.691,0.938,5.196,0.938,7.948v6.422c0,2.266-0.47,6.523-0.626,7.999
		L169.5,85.067z M168.876,70.954c0-3.143,1.284-5.29,3.943-5.29c2.476,0,4.2,2.174,4.2,5.274c0,2.761-1.347,4.601-4.014,4.601
		C170.377,75.54,168.876,73.982,168.876,70.954"/>
	<path fill="#FFFFFF" d="M192.773,65.676c-0.937-0.157-1.508-0.322-2.444-0.322c-1.646,0-2.796,0.4-2.796,1.229
		c0,0.95,1.552,1.715,3.297,2.667c1.656,0.924,3.939,2.15,3.939,4.91c0,3.033-2.627,4.741-6.614,4.741
		c-1.808,0-3.061-0.363-4.562-0.701v-3.364c1.156,0.37,3.035,1.009,4.716,1.009c1.118,0,2.239-0.516,2.239-1.562
		c0-0.952-1.335-1.536-3.265-2.635c-1.751-0.895-3.968-2.732-3.968-5.066c0-2.757,2.687-4.284,6.302-4.284
		c1.182,0,2.606,0.174,3.761,0.317L192.773,65.676z"/>
</g>
</svg>
