<?xml version="1.0" encoding="utf-8"?>
<!-- Generator: Adobe Illustrator 17.0.0, SVG Export Plug-In . SVG Version: 6.00 Build 0)  -->
<!DOCTYPE svg PUBLIC "-//W3C//DTD SVG 1.1//EN" "http://www.w3.org/Graphics/SVG/1.1/DTD/svg11.dtd">
<svg version="1.1" id="Layer_1" xmlns="http://www.w3.org/2000/svg" xmlns:xlink="http://www.w3.org/1999/xlink" x="0px" y="0px"
	 width="350px" height="100px" viewBox="0 0 350 100" enable-background="new 0 0 350 100" xml:space="preserve">
<path fill="#FFFFFF" d="M9.257,37.995c0-2.36,0.549-4.088,1.652-5.191c1.1-1.099,2.79-1.652,5.073-1.652h2.714v-8.376h-1.18
	c-2.124,0-4.187,0.278-6.194,0.826c-2.006,0.553-3.757,1.416-5.249,2.595c-1.575,1.261-2.814,2.931-3.717,5.014
	c-0.907,2.086-1.357,4.661-1.357,7.728v15.218h8.258V37.995z M33.089,54.747c3.695,0,6.762-0.903,9.202-2.714
	c2.437-1.729,4.088-4.247,4.955-7.551h-5.899c-0.943,0-1.673,0.198-2.183,0.59c-0.513,0.395-0.808,0.708-0.885,0.944
	c-0.236,0.236-0.453,0.454-0.648,0.649c-0.199,0.199-0.413,0.336-0.649,0.413c-0.944,0.552-2.087,0.826-3.421,0.826
	c-2.047,0-3.58-0.627-4.601-1.887c-1.103-1.18-1.693-2.987-1.77-5.427h20.412c0.076-0.155,0.117-0.43,0.117-0.826v-1.297
	c0-5.191-1.261-9.24-3.776-12.152c-2.595-2.832-6.252-4.248-10.971-4.248c-4.483,0-7.985,1.458-10.5,4.366
	c-2.44,2.831-3.658,6.765-3.658,11.797c0,5.271,1.257,9.32,3.776,12.151C25.104,53.293,28.606,54.747,33.089,54.747z M28.96,30.562
	c1.099-1.099,2.515-1.652,4.247-1.652c1.887,0,3.342,0.553,4.365,1.652c0.944,1.025,1.492,2.595,1.652,4.719H27.19
	C27.267,33.238,27.857,31.665,28.96,30.562z M83.465,14.694c-0.788-0.746-1.732-1.121-2.831-1.121h-4.248v40.584h8.258v-36.69
	C84.645,16.366,84.25,15.443,83.465,14.694z M61.875,34.454c-0.708,0.081-1.339,0.178-1.887,0.295
	c-0.553,0.118-1.025,0.177-1.415,0.177c-2.991,0.472-5.449,1.416-7.374,2.831c-1.928,1.416-2.891,3.775-2.891,7.078
	c0,3.539,1.062,6.076,3.186,7.609c2.122,1.534,4.6,2.301,7.432,2.301c1.415,0,3.046-0.099,4.896-0.296
	c1.846-0.197,3.598-0.725,5.249-1.592c1.571-0.784,2.929-2.065,4.071-3.835c1.138-1.768,1.71-4.225,1.71-7.373V30.915
	c0-2.831-1.143-5.031-3.421-6.607c-2.204-1.492-5.508-2.241-9.91-2.241c-3.935,0-6.961,0.907-9.085,2.714
	c-1.887,1.575-2.99,3.579-3.303,6.016h7.905c0.39-0.862,1.02-1.453,1.887-1.769c0.862-0.313,1.846-0.472,2.949-0.472
	c1.02,0,2.141,0.176,3.363,0.53c1.218,0.354,1.83,1.121,1.83,2.301C67.068,32.962,65.334,33.983,61.875,34.454z M67.185,38.349
	v2.948c0,2.205-0.632,3.935-1.888,5.191c-1.26,1.261-2.991,1.888-5.191,1.888c-1.339,0-2.36-0.312-3.067-0.943
	c-0.709-0.708-1.062-1.652-1.062-2.832c0-0.863,0.273-1.729,0.826-2.595c0.627-0.627,1.652-1.138,3.067-1.533l2.714-0.591
	C64.548,39.409,66.081,38.901,67.185,38.349z M65.718,78.381c0,0-3.842,2.919-8.042,2.919c-5.276,0-8.144-4.199-8.144-10.347
	l0.204-0.102c0,0,2.664,1.434,5.635,1.434c4.508,0,9.886-1.844,9.886-6.967c0-3.483-2.664-7.324-9.425-7.324
	c-7.479,0-12.141,7.171-12.141,14.24c0,7.53,5.072,12.908,11.935,12.908c8.606,0,10.348-6.505,10.348-6.505L65.718,78.381z
	 M55.166,60.351c2.92,0,3.995,2.51,3.995,4.917c0,3.176-2.51,4.456-4.816,4.456c-2.151,0-4.764-0.82-4.764-1.229
	C49.582,66.549,51.529,60.351,55.166,60.351z M46.776,59.018v-0.256c0,0-0.769-0.41-2.356-0.41c-4.457,0-1.793,1.793-8.862,22.13
	c-2.254-5.686-5.687-15.573-6.762-19.978c-0.41-1.588-2.202-2.151-3.944-2.151c-1.793,0-2.817,0.205-3.842,0.41v0.256
	c0.973,0.82,1.537,1.998,2.049,3.073c1.844,4.098,5.02,13.934,6.455,18.596c0.717,2.459,2.817,3.431,4.507,3.841l-0.82,1.895
	c-1.69,3.842-4.252,5.123-7.223,5.123c-1.229,0-2.561-0.205-3.944-0.513c0.154,3.176-0.256,5.123,3.279,5.123
	c4.201,0,8.452-3.279,11.218-11.014l7.582-21.412C45.443,59.889,46.776,59.018,46.776,59.018z M71.048,64.141
	c0-2.254,1.69-3.894,3.995-3.894c3.893,0,6.404,4.303,6.404,4.303h0.256c0.922-0.973,1.844-2.613,1.844-3.688
	c0-2.1-5.687-2.868-7.735-2.868c-4.764,0-9.477,2.715-9.477,7.632c0,8.708,13.318,7.94,13.318,13.216
	c0,1.793-1.178,3.535-4.507,3.535c-5.02,0-7.991-3.688-7.991-3.688h-0.257c-0.41,0.717-1.024,1.998-1.024,2.817
	c0,2.202,5.328,3.637,8.709,3.637c4.764,0,9.784-2.715,9.784-7.888C84.366,68.084,71.048,69.366,71.048,64.141z M23.025,78.381
	c0,0-3.842,2.919-8.042,2.919c-5.277,0-8.145-4.199-8.145-10.347l0.205-0.102c0,0,2.664,1.434,5.635,1.434
	c4.508,0,9.887-1.844,9.887-6.967c0-3.483-2.664-7.324-9.425-7.324c-7.479,0-12.14,7.171-12.14,14.24
	c0,7.53,5.071,12.908,11.935,12.908c8.606,0,10.348-6.505,10.348-6.505L23.025,78.381z M12.473,60.351
	c2.92,0,3.996,2.51,3.996,4.917c0,3.176-2.51,4.456-4.815,4.456c-2.152,0-4.764-0.82-4.764-1.229
	C6.89,66.549,8.836,60.351,12.473,60.351z"/>
<g>
	<path fill="#FFFFFF" d="M152.359,38.938v1.212h-12.468V21.436h12.231v1.212h-10.886v7.354h9.516v1.16h-9.516v7.776H152.359z"/>
	<path fill="#FFFFFF" d="M175.792,40.151h-1.318v-7.644c0-1.74-0.268-3.022-0.804-3.849c-0.536-0.826-1.357-1.239-2.464-1.239
		c-0.58,0-1.125,0.105-1.634,0.316c-0.51,0.211-0.971,0.505-1.384,0.883c-0.413,0.378-0.773,0.826-1.081,1.344
		c-0.308,0.519-0.55,1.094-0.725,1.727v8.461h-1.318v-7.644c0-1.757-0.264-3.044-0.791-3.862c-0.527-0.817-1.344-1.226-2.451-1.226
		c-0.562,0-1.099,0.102-1.608,0.303c-0.51,0.202-0.976,0.492-1.397,0.87c-0.422,0.378-0.791,0.826-1.107,1.344
		c-0.316,0.519-0.562,1.094-0.738,1.727v8.488h-1.318V26.444h1.212v3.269c0.58-1.107,1.327-1.968,2.241-2.583
		c0.913-0.615,1.924-0.922,3.031-0.922c1.16,0,2.095,0.343,2.807,1.028c0.711,0.686,1.138,1.582,1.278,2.688
		c1.335-2.478,3.128-3.716,5.377-3.716c1.511,0,2.587,0.532,3.229,1.595c0.641,1.063,0.962,2.553,0.962,4.468V40.151z"/>
	<path fill="#FFFFFF" d="M185.467,40.415c-0.967,0-1.859-0.189-2.676-0.567c-0.818-0.377-1.526-0.892-2.123-1.542
		c-0.598-0.65-1.063-1.406-1.397-2.267c-0.334-0.861-0.501-1.766-0.501-2.715c0-0.966,0.171-1.88,0.514-2.741
		c0.343-0.861,0.817-1.617,1.423-2.267c0.606-0.65,1.313-1.164,2.123-1.542c0.809-0.377,1.688-0.566,2.637-0.566
		c0.947,0,1.83,0.189,2.648,0.566c0.816,0.378,1.529,0.892,2.135,1.542c0.605,0.65,1.08,1.406,1.424,2.267
		c0.342,0.861,0.514,1.775,0.514,2.741c0,0.949-0.172,1.854-0.514,2.715c-0.344,0.861-0.812,1.617-1.41,2.267
		c-0.598,0.65-1.311,1.165-2.135,1.542C187.303,40.226,186.414,40.415,185.467,40.415z M180.114,33.376
		c0,0.809,0.141,1.568,0.422,2.28c0.281,0.711,0.663,1.331,1.146,1.858c0.483,0.527,1.05,0.945,1.7,1.252
		c0.65,0.308,1.346,0.461,2.084,0.461c0.736,0,1.432-0.154,2.082-0.461c0.648-0.307,1.217-0.733,1.699-1.278
		c0.484-0.544,0.871-1.173,1.16-1.885c0.289-0.712,0.436-1.48,0.436-2.307c0-0.808-0.146-1.568-0.436-2.28
		c-0.289-0.712-0.676-1.335-1.16-1.872c-0.482-0.536-1.051-0.962-1.699-1.278c-0.65-0.316-1.346-0.475-2.082-0.475
		c-0.723,0-1.406,0.158-2.057,0.475s-1.222,0.747-1.714,1.292c-0.492,0.545-0.879,1.182-1.16,1.911
		C180.255,31.8,180.114,32.568,180.114,33.376z"/>
	<path fill="#FFFFFF" d="M201.254,39.492c-0.07,0.036-0.188,0.102-0.355,0.198c-0.167,0.097-0.378,0.189-0.633,0.277
		c-0.255,0.088-0.54,0.167-0.856,0.237s-0.659,0.105-1.028,0.105s-0.716-0.053-1.041-0.158s-0.61-0.264-0.856-0.475
		s-0.444-0.465-0.593-0.764c-0.149-0.299-0.225-0.65-0.225-1.055V27.525h-1.924v-1.081h1.924v-4.692h1.318v4.692h3.216v1.081h-3.216
		v10.017c0,0.51,0.175,0.892,0.527,1.146c0.351,0.255,0.755,0.382,1.212,0.382c0.545,0,1.015-0.092,1.41-0.277
		s0.637-0.303,0.726-0.356L201.254,39.492z"/>
	<path fill="#FFFFFF" d="M203.468,23.334v-2.425h1.318v2.425H203.468z M203.468,40.151V26.444h1.318v13.707H203.468z"/>
	<path fill="#FFFFFF" d="M214.618,40.415c-0.967,0-1.858-0.189-2.676-0.567c-0.817-0.377-1.524-0.892-2.122-1.542
		c-0.598-0.65-1.063-1.406-1.397-2.267s-0.5-1.766-0.5-2.715c0-0.966,0.171-1.88,0.514-2.741c0.343-0.861,0.817-1.617,1.424-2.267
		c0.605-0.65,1.312-1.164,2.121-1.542c0.809-0.377,1.688-0.566,2.637-0.566c0.948,0,1.831,0.189,2.648,0.566
		c0.817,0.378,1.529,0.892,2.136,1.542c0.605,0.65,1.08,1.406,1.423,2.267c0.343,0.861,0.514,1.775,0.514,2.741
		c0,0.949-0.171,1.854-0.514,2.715s-0.812,1.617-1.41,2.267c-0.598,0.65-1.31,1.165-2.135,1.542
		C216.454,40.226,215.566,40.415,214.618,40.415z M209.266,33.376c0,0.809,0.141,1.568,0.422,2.28
		c0.281,0.711,0.663,1.331,1.146,1.858c0.483,0.527,1.05,0.945,1.7,1.252c0.65,0.308,1.345,0.461,2.083,0.461
		c0.737,0,1.432-0.154,2.082-0.461c0.649-0.307,1.217-0.733,1.7-1.278c0.483-0.544,0.87-1.173,1.159-1.885
		c0.29-0.712,0.436-1.48,0.436-2.307c0-0.808-0.146-1.568-0.436-2.28c-0.289-0.712-0.676-1.335-1.159-1.872
		c-0.483-0.536-1.051-0.962-1.7-1.278c-0.65-0.316-1.345-0.475-2.082-0.475c-0.722,0-1.406,0.158-2.057,0.475
		s-1.222,0.747-1.713,1.292c-0.492,0.545-0.879,1.182-1.16,1.911C209.407,31.8,209.266,32.568,209.266,33.376z"/>
	<path fill="#FFFFFF" d="M235.652,40.151h-1.318v-7.644c0-1.775-0.25-3.066-0.751-3.875c-0.501-0.808-1.305-1.212-2.412-1.212
		c-0.58,0-1.155,0.105-1.727,0.316s-1.099,0.51-1.581,0.896c-0.483,0.387-0.909,0.839-1.278,1.357
		c-0.369,0.519-0.642,1.077-0.817,1.674v8.488h-1.318V26.444h1.213v3.269c0.281-0.527,0.633-1.006,1.055-1.437
		c0.422-0.43,0.887-0.799,1.396-1.107c0.51-0.307,1.059-0.544,1.647-0.711s1.19-0.25,1.806-0.25c1.493,0,2.548,0.523,3.163,1.568
		s0.923,2.543,0.923,4.494V40.151z"/>
	<path fill="#FFFFFF" d="M242.953,40.415c-0.633,0-1.226-0.11-1.779-0.33c-0.553-0.22-1.037-0.518-1.449-0.896
		c-0.413-0.378-0.734-0.826-0.962-1.345c-0.229-0.518-0.343-1.076-0.343-1.673c0-0.598,0.141-1.142,0.422-1.634
		c0.28-0.492,0.676-0.918,1.186-1.279c0.51-0.36,1.111-0.641,1.806-0.843c0.694-0.202,1.463-0.303,2.307-0.303
		c0.738,0,1.484,0.066,2.24,0.198s1.433,0.312,2.03,0.541v-1.345c0-1.3-0.369-2.333-1.107-3.097
		c-0.738-0.764-1.74-1.146-3.005-1.146c-0.686,0-1.401,0.141-2.148,0.422c-0.747,0.281-1.498,0.685-2.254,1.212L239.368,28
		c1.775-1.195,3.444-1.792,5.009-1.792c1.651,0,2.956,0.479,3.914,1.437c0.958,0.958,1.437,2.28,1.437,3.967v6.695
		c0,0.439,0.185,0.659,0.554,0.659v1.186c-0.088,0.017-0.171,0.026-0.25,0.026s-0.154,0-0.225,0c-0.316,0-0.606-0.109-0.87-0.33
		c-0.264-0.219-0.395-0.505-0.395-0.856v-1.134c-0.633,0.826-1.438,1.459-2.412,1.898C245.154,40.194,244.096,40.415,242.953,40.415
		z M243.217,39.36c1.02,0,1.959-0.188,2.82-0.566s1.503-0.892,1.925-1.542c0.298-0.352,0.448-0.703,0.448-1.055v-2.425
		c-1.336-0.492-2.707-0.738-4.112-0.738c-1.371,0-2.478,0.282-3.321,0.844c-0.844,0.562-1.266,1.301-1.266,2.214
		c0,0.457,0.088,0.887,0.264,1.292s0.422,0.751,0.738,1.041s0.689,0.519,1.12,0.686S242.725,39.36,243.217,39.36z"/>
	<path fill="#FFFFFF" d="M253.839,20.909h1.345v16.527c0,0.51,0.145,0.914,0.435,1.212s0.689,0.448,1.199,0.448
		c0.193,0,0.426-0.022,0.699-0.066c0.271-0.044,0.522-0.11,0.751-0.198l0.264,1.054c-0.299,0.123-0.668,0.224-1.107,0.303
		s-0.817,0.119-1.133,0.119c-0.738,0-1.332-0.224-1.779-0.672c-0.448-0.448-0.673-1.05-0.673-1.806V20.909z"/>
	<path fill="#FFFFFF" d="M139.443,56.282v-2.425h1.318v2.425H139.443z M139.443,73.1V59.393h1.318V73.1H139.443z"/>
	<path fill="#FFFFFF" d="M156.023,73.1h-1.318v-7.645c0-1.774-0.25-3.065-0.751-3.874s-1.305-1.213-2.412-1.213
		c-0.58,0-1.155,0.105-1.726,0.316c-0.571,0.211-1.099,0.51-1.582,0.896c-0.484,0.387-0.91,0.839-1.279,1.357
		c-0.369,0.519-0.642,1.076-0.817,1.674V73.1h-1.318V59.393h1.212v3.269c0.281-0.527,0.633-1.006,1.054-1.437
		c0.422-0.43,0.887-0.799,1.397-1.106s1.059-0.545,1.647-0.712s1.19-0.251,1.806-0.251c1.494,0,2.548,0.523,3.163,1.568
		c0.615,1.046,0.923,2.544,0.923,4.494V73.1z"/>
	<path fill="#FFFFFF" d="M165.986,72.44c-0.07,0.035-0.189,0.102-0.356,0.198s-0.378,0.188-0.633,0.276s-0.54,0.167-0.856,0.237
		s-0.659,0.105-1.028,0.105c-0.369,0-0.716-0.053-1.042-0.158s-0.611-0.264-0.856-0.475c-0.247-0.211-0.444-0.465-0.593-0.765
		c-0.149-0.298-0.224-0.649-0.224-1.054V60.474h-1.924v-1.081h1.924v-4.691h1.318v4.691h3.215v1.081h-3.215V70.49
		c0,0.51,0.175,0.892,0.527,1.146s0.755,0.382,1.212,0.382c0.545,0,1.015-0.092,1.411-0.276c0.395-0.185,0.637-0.303,0.725-0.355
		L165.986,72.44z"/>
	<path fill="#FFFFFF" d="M174.052,73.363c-0.967,0-1.863-0.189-2.688-0.566c-0.826-0.378-1.542-0.896-2.148-1.556
		s-1.081-1.419-1.423-2.28c-0.343-0.86-0.514-1.783-0.514-2.768c0-0.966,0.171-1.875,0.514-2.728s0.812-1.6,1.41-2.241
		c0.597-0.641,1.309-1.146,2.135-1.516c0.826-0.369,1.713-0.554,2.662-0.554c0.966,0,1.858,0.189,2.675,0.567
		c0.817,0.378,1.524,0.888,2.122,1.528c0.597,0.642,1.067,1.389,1.41,2.241s0.514,1.752,0.514,2.701c0,0.088-0.004,0.198-0.013,0.33
		c-0.009,0.132-0.013,0.215-0.013,0.25h-12.046c0.053,0.791,0.237,1.524,0.554,2.201s0.716,1.261,1.199,1.753
		s1.042,0.879,1.674,1.159c0.633,0.281,1.309,0.422,2.03,0.422c0.475,0,0.944-0.065,1.41-0.197c0.465-0.132,0.896-0.312,1.292-0.541
		c0.396-0.228,0.747-0.505,1.055-0.83c0.307-0.325,0.549-0.681,0.725-1.067l1.16,0.316c-0.21,0.492-0.505,0.944-0.883,1.357
		c-0.378,0.413-0.817,0.769-1.318,1.067s-1.05,0.532-1.647,0.698C175.299,73.279,174.684,73.363,174.052,73.363z M179.429,65.719
		c-0.053-0.808-0.233-1.546-0.541-2.214c-0.308-0.668-0.703-1.243-1.186-1.727c-0.484-0.483-1.042-0.86-1.674-1.134
		c-0.633-0.271-1.31-0.408-2.03-0.408c-0.721,0-1.397,0.137-2.03,0.408c-0.632,0.273-1.19,0.65-1.674,1.134s-0.87,1.063-1.16,1.74
		c-0.29,0.676-0.461,1.41-0.514,2.2H179.429z"/>
	<path fill="#FFFFFF" d="M183.673,53.857h1.345v16.527c0,0.51,0.145,0.914,0.435,1.212c0.29,0.3,0.689,0.448,1.199,0.448
		c0.193,0,0.426-0.021,0.699-0.065c0.271-0.044,0.522-0.109,0.751-0.198l0.264,1.055c-0.299,0.123-0.668,0.225-1.107,0.303
		c-0.439,0.079-0.817,0.119-1.133,0.119c-0.738,0-1.332-0.224-1.779-0.672c-0.448-0.448-0.673-1.05-0.673-1.806V53.857z"/>
	<path fill="#FFFFFF" d="M190.236,53.857h1.345v16.527c0,0.51,0.145,0.914,0.435,1.212c0.29,0.3,0.689,0.448,1.199,0.448
		c0.193,0,0.426-0.021,0.699-0.065c0.271-0.044,0.522-0.109,0.751-0.198l0.264,1.055c-0.299,0.123-0.668,0.225-1.107,0.303
		c-0.439,0.079-0.817,0.119-1.133,0.119c-0.738,0-1.332-0.224-1.779-0.672c-0.448-0.448-0.673-1.05-0.673-1.806V53.857z"/>
	<path fill="#FFFFFF" d="M196.721,56.282v-2.425h1.318v2.425H196.721z M196.721,73.1V59.393h1.318V73.1H196.721z"/>
	<path fill="#FFFFFF" d="M207.686,73.311c-0.949,0-1.819-0.198-2.61-0.593c-0.79-0.396-1.476-0.923-2.056-1.582
		s-1.028-1.41-1.345-2.254c-0.315-0.843-0.474-1.713-0.474-2.609c0-0.931,0.153-1.827,0.461-2.688
		c0.308-0.86,0.742-1.621,1.305-2.28s1.234-1.182,2.017-1.568c0.781-0.386,1.639-0.58,2.57-0.58c1.194,0,2.235,0.312,3.123,0.937
		s1.647,1.384,2.28,2.279v-2.979h1.187v13.971c0,0.931-0.177,1.748-0.527,2.451c-0.352,0.703-0.822,1.287-1.41,1.753
		c-0.589,0.466-1.274,0.817-2.057,1.055s-1.604,0.355-2.464,0.355c-0.791,0-1.503-0.075-2.136-0.224
		c-0.633-0.149-1.19-0.36-1.674-0.633s-0.914-0.606-1.291-1.002c-0.378-0.396-0.708-0.83-0.988-1.305l0.896-0.606
		c0.545,0.932,1.283,1.612,2.215,2.043c0.931,0.431,1.924,0.646,2.979,0.646c0.702,0,1.366-0.097,1.989-0.289
		c0.624-0.194,1.169-0.479,1.635-0.857s0.834-0.848,1.107-1.41c0.271-0.562,0.408-1.222,0.408-1.977v-3.005
		c-0.562,0.879-1.31,1.591-2.24,2.135C209.654,73.038,208.687,73.311,207.686,73.311z M208.002,72.177
		c0.58,0,1.143-0.109,1.688-0.329s1.041-0.505,1.489-0.856s0.821-0.747,1.12-1.187s0.475-0.879,0.527-1.318v-4.507
		c-0.211-0.527-0.492-1.015-0.844-1.463s-0.751-0.83-1.199-1.146s-0.932-0.567-1.449-0.752c-0.519-0.185-1.042-0.276-1.568-0.276
		c-0.826,0-1.564,0.176-2.215,0.527s-1.199,0.809-1.647,1.37c-0.448,0.563-0.79,1.2-1.027,1.911
		c-0.237,0.712-0.356,1.429-0.356,2.148c0,0.791,0.141,1.538,0.422,2.24c0.281,0.703,0.672,1.327,1.173,1.872
		s1.081,0.976,1.74,1.291C206.513,72.019,207.228,72.177,208.002,72.177z"/>
	<path fill="#FFFFFF" d="M224.056,73.363c-0.967,0-1.863-0.189-2.689-0.566c-0.826-0.378-1.542-0.896-2.147-1.556
		c-0.606-0.659-1.081-1.419-1.424-2.28c-0.343-0.86-0.514-1.783-0.514-2.768c0-0.966,0.171-1.875,0.514-2.728s0.812-1.6,1.41-2.241
		c0.598-0.641,1.309-1.146,2.135-1.516s1.714-0.554,2.663-0.554c0.966,0,1.857,0.189,2.675,0.567s1.524,0.888,2.122,1.528
		c0.598,0.642,1.067,1.389,1.41,2.241s0.514,1.752,0.514,2.701c0,0.088-0.004,0.198-0.013,0.33s-0.014,0.215-0.014,0.25h-12.046
		c0.053,0.791,0.237,1.524,0.554,2.201s0.716,1.261,1.199,1.753s1.041,0.879,1.674,1.159c0.633,0.281,1.309,0.422,2.029,0.422
		c0.475,0,0.945-0.065,1.411-0.197c0.465-0.132,0.896-0.312,1.291-0.541c0.396-0.228,0.747-0.505,1.055-0.83
		c0.307-0.325,0.549-0.681,0.725-1.067l1.16,0.316c-0.211,0.492-0.506,0.944-0.884,1.357s-0.816,0.769-1.317,1.067
		s-1.051,0.532-1.647,0.698C225.303,73.279,224.687,73.363,224.056,73.363z M229.433,65.719c-0.053-0.808-0.233-1.546-0.541-2.214
		s-0.702-1.243-1.186-1.727s-1.041-0.86-1.674-1.134c-0.633-0.271-1.31-0.408-2.029-0.408c-0.722,0-1.397,0.137-2.03,0.408
		c-0.633,0.273-1.19,0.65-1.674,1.134s-0.87,1.063-1.159,1.74c-0.29,0.676-0.462,1.41-0.515,2.2H229.433z"/>
	<path fill="#FFFFFF" d="M244.8,73.1h-1.318v-7.645c0-1.774-0.25-3.065-0.751-3.874s-1.305-1.213-2.412-1.213
		c-0.58,0-1.155,0.105-1.727,0.316s-1.099,0.51-1.581,0.896c-0.483,0.387-0.909,0.839-1.278,1.357s-0.642,1.076-0.817,1.674V73.1
		h-1.318V59.393h1.213v3.269c0.281-0.527,0.633-1.006,1.055-1.437c0.422-0.43,0.887-0.799,1.396-1.106s1.059-0.545,1.647-0.712
		s1.19-0.251,1.806-0.251c1.493,0,2.548,0.523,3.163,1.568c0.615,1.046,0.923,2.544,0.923,4.494V73.1z"/>
	<path fill="#FFFFFF" d="M247.778,66.193c0-0.966,0.166-1.88,0.5-2.741c0.334-0.86,0.805-1.607,1.411-2.24
		c0.605-0.633,1.321-1.134,2.147-1.503s1.731-0.554,2.716-0.554c1.247,0,2.341,0.281,3.281,0.844
		c0.939,0.562,1.656,1.345,2.148,2.346l-1.292,0.422c-0.404-0.755-0.984-1.349-1.739-1.779c-0.756-0.43-1.582-0.646-2.478-0.646
		c-0.756,0-1.459,0.149-2.109,0.448s-1.217,0.712-1.7,1.238c-0.483,0.527-0.861,1.147-1.133,1.858
		c-0.273,0.712-0.409,1.481-0.409,2.307c0,0.826,0.146,1.604,0.436,2.333c0.289,0.729,0.676,1.362,1.159,1.897
		c0.483,0.536,1.05,0.963,1.7,1.278c0.65,0.316,1.345,0.475,2.083,0.475c0.474,0,0.944-0.069,1.41-0.211
		c0.465-0.14,0.896-0.324,1.291-0.553s0.738-0.497,1.028-0.805c0.29-0.307,0.487-0.628,0.593-0.962l1.292,0.369
		c-0.176,0.475-0.444,0.918-0.804,1.331c-0.361,0.413-0.787,0.769-1.279,1.067s-1.032,0.532-1.621,0.698
		c-0.589,0.167-1.199,0.251-1.831,0.251c-0.967,0-1.863-0.189-2.689-0.566c-0.826-0.378-1.542-0.896-2.147-1.556
		c-0.606-0.659-1.086-1.419-1.438-2.28C247.953,68.101,247.778,67.178,247.778,66.193z"/>
	<path fill="#FFFFFF" d="M268.944,73.363c-0.967,0-1.863-0.189-2.689-0.566c-0.826-0.378-1.542-0.896-2.147-1.556
		c-0.606-0.659-1.081-1.419-1.424-2.28c-0.343-0.86-0.514-1.783-0.514-2.768c0-0.966,0.171-1.875,0.514-2.728s0.812-1.6,1.41-2.241
		c0.598-0.641,1.309-1.146,2.135-1.516s1.714-0.554,2.663-0.554c0.966,0,1.857,0.189,2.675,0.567s1.524,0.888,2.122,1.528
		c0.598,0.642,1.067,1.389,1.41,2.241s0.514,1.752,0.514,2.701c0,0.088-0.004,0.198-0.013,0.33s-0.014,0.215-0.014,0.25H263.54
		c0.053,0.791,0.237,1.524,0.554,2.201s0.716,1.261,1.199,1.753s1.041,0.879,1.674,1.159c0.633,0.281,1.309,0.422,2.029,0.422
		c0.475,0,0.945-0.065,1.411-0.197c0.465-0.132,0.896-0.312,1.291-0.541c0.396-0.228,0.747-0.505,1.055-0.83
		c0.307-0.325,0.549-0.681,0.725-1.067l1.16,0.316c-0.211,0.492-0.506,0.944-0.884,1.357s-0.816,0.769-1.317,1.067
		s-1.051,0.532-1.647,0.698C270.191,73.279,269.576,73.363,268.944,73.363z M274.321,65.719c-0.053-0.808-0.233-1.546-0.541-2.214
		s-0.702-1.243-1.186-1.727s-1.041-0.86-1.674-1.134c-0.633-0.271-1.31-0.408-2.029-0.408c-0.722,0-1.397,0.137-2.03,0.408
		c-0.633,0.273-1.19,0.65-1.674,1.134s-0.87,1.063-1.159,1.74c-0.29,0.676-0.462,1.41-0.515,2.2H274.321z"/>
</g>
<rect x="110.948" y="3.246" fill="#FFFFFF" width="1.337" height="92.911"/>
</svg>
