<?xml version="1.0" encoding="utf-8"?>
<!-- Generator: Adobe Illustrator 17.0.0, SVG Export Plug-In . SVG Version: 6.00 Build 0)  -->
<!DOCTYPE svg PUBLIC "-//W3C//DTD SVG 1.1//EN" "http://www.w3.org/Graphics/SVG/1.1/DTD/svg11.dtd">
<svg version="1.1" id="Layer_1" xmlns="http://www.w3.org/2000/svg" xmlns:xlink="http://www.w3.org/1999/xlink" x="0px" y="0px"
	 width="170px" height="170px" viewBox="0 0 170 170" enable-background="new 0 0 170 170" xml:space="preserve">
<g>
	<path fill="#CC6600" d="M82.176,90.904c0,0,10.991-4.183,12.3-7.797c0.99-2.746,0.481-6.681,0.165-7.424
		C94.317,74.935,85.267,89.095,82.176,90.904z"/>
	<path fill="#CC6600" d="M93.987,100.104c0,0,9.728-7.523,12.341-18.425c1.626-6.88-6.599-22.453-6.314-21.748
		c4.672,11.838,0.023,28.067-0.667,29.664C98.655,91.177,93.987,100.104,93.987,100.104z"/>
	<path fill="#CC6600" d="M85.902,107.299c1.989-1.019,2.196-1.084,2.513-1.34c0.307-0.263,0.433-0.509-1.343-0.06
		c-1.804,0.446-8.638,2.667-11.46,4.66c-2.824,1.991-4.094,3.721-4.094,3.721s0.383-2.953,2.684-5.44
		c2.321-2.495,2.571-2.749,3.012-3.079c0.446-0.31,0.259-0.56-0.509-0.126c-0.766,0.457-4.429,4.173-5.767,6.14
		c-1.337,1.988-2.051,3.075-6.395,3.784c-4.341,0.699-8.252,1.664-9.965,3.262c-1.735,1.588-2.431,3.2-2.431,3.2
		s-0.152,0.186-0.315,0.282c2.419,1.4,4.937,2.646,7.54,3.73c2.659-2.291,5.437-4.583,8.385-6.768
		C76.954,112.477,83.929,108.324,85.902,107.299z"/>
	<path fill="#CC6600" d="M133.733,73.396c-0.312,2.698-1.268,9.213-7.424,15.364c-1.435,1.446-2.44,2.59-3.987,3.431
		c2.068-0.354,4.274-0.639,6.554-0.744C131.556,87.628,134.89,79.239,133.733,73.396z"/>
	<path fill="#CC6600" d="M84.333,1c-35.899,0-65,29.101-65,65c0,23.902,12.903,44.787,32.122,56.079
		c-0.012-0.07-0.021-0.151-0.021-0.256c0-1.094,0.71-5.82,5.764-9.601c5.039-3.771,7.408-5.502,8.301-6.133
		c0.902-0.641,0.853-0.89,0.134-0.833c-0.711,0.052-6.47,1.153-9.068,3.195c-2.632,2.053-3.405,2.875-3.405,2.875
		s-0.711,0.203-0.453-1.083c0.264-1.283,1.501-5.182,4.875-7.351c3.366-2.184,6.901-3.332,6.901-3.332l0.134-3.313
		c0,0-7.176-3.708-8.768-4.992c-1.61-1.286-3.208-2.695-1.916-10.055c1.264-7.36,1.393-8.884,1.344-9.529
		c-0.079-0.632-2.956-2.94-2.258-7.115c0.709-4.144,2.307-6.506,2.307-6.506s-0.192,4.859-0.128,7.481
		c0.079,2.614,0.128,4.209,0.901,5.117c0.76,0.896,0.829,0.51,1.161,1.485c0.323,0.95-1.41,8.237-1.859,10.988
		c-0.444,2.751-1.419,5.306,0.698,5.063c2.111-0.269,1.539-0.78,2.111-1.409c0.581-0.649,1.733-0.903,2.618-0.649
		c0.9,0.258,1.41,0.705,2.311,0.448c0.896-0.262,3.323,0,1.921,1.717c-1.399,1.745-3.644,1.219-3.014,2.815
		c0.64,1.602,8.351,6.428,11.076,4.702c3.41-2.133,5.153-2.568,5.294-3.96c0.117-1.414-2.479-3.625-4.334-2.582
		c-1.857,1.009-5.05,2.106-6.913,1.717c-1.86-0.375-2.364-1.22-1.735-1.147c0.647,0.062,2.56,0.689,4.362-1.41
		c1.784-2.114,16.919-9.575,19.616-13.932c2.685-4.345-1.522-15.112,0.54-17.151c2.034-2.048,17.245-5.379,19.995-6.296
		c5.766-1.922,9.693-7.008,8.412-11.66c-0.716-2.577-4.526-7.032-8.254-9.309c-0.909-0.55,18.907,2.226,19.305,21.961
		c0.174,8.488,12.533,16.168,11.167,25.501c-1.036,6.965-8.075,12.395-10.806,13.88c1.723-0.047,3.494,0.014,5.276,0.21
		c3.015,0.331,5.9,2.289,5.9,2.289s-20.198,2.46-26.998,5.764c-11.04,5.354-25.059,12.036-40.799,24.169
		c-2.203,1.699-4.238,3.29-6.166,4.802c5.523,1.526,11.34,2.345,17.348,2.345c35.898,0,65-29.101,65-65S120.232,1,84.333,1z
		 M52.405,58.774c-0.323,0.436,6.248-13.886,6.601-15.878c0.812-4.41,2.85-9.934,9.737-9.518c1.73,0.118,11.909,3.482,13.36,6.363
		c1.442,2.88-2.883,11.248-4.137,11.399c-1.278,0.14-0.215-4.948-1.388-6.573c-1.697-2.334-8.239-3.515-10.59-1.159L52.405,58.774z
		 M75.76,69.057c-3.874,6.709-6.29,10.672-6.9,11.553c-0.616,0.874-1.381,1.571-1.274,0.799c0.123-0.755,1.157-3.789,1.307-5.48
		c0.153-1.685,0.308-3.272-0.912-2.943c-1.215,0.297-2.567,0.297-3.112-0.12c-0.548-0.417-0.585-0.894-0.044-0.94
		c0.539-0.035,2.993-0.717,4.036-1.607c1.025-0.866,1.541-1.685,1.773-2.221c0.231-0.534,0.221-0.887-0.708-0.414
		c-0.906,0.452-2.791,1.799-3.57,2.283c-0.756,0.513-2.362,0.931-2.446,1.243c-0.081,0.307,0.384,2.301,0.384,4.325
		c0,2.039-0.223,5.335-0.856,4.841c-0.615-0.49-0.338-1.916-1.288-2.835c-0.964-0.922-2.112-2.516-1.963-4.144
		c0.155-1.62,0.383-2.024,0.104-2.949c-0.27-0.922-0.298-2.24,0.503-2.395c0.804-0.144,1.118,0.702,3.001,0.39
		c1.762-0.289,3.643-1.418,5.064-2.521c1.424-1.124,3.872-3.801,5.223-4.081c1.341-0.266,2.227-0.151,3.287-1.486
		c1.074-1.352,2.343-2.587,2.973-3.04c0.61-0.466,1.192-1.024,1.421-0.87C81.996,56.587,79.648,62.334,75.76,69.057z M82.672,48.066
		c1.016-2.651,2.646-4.5,2.103-7.183c-0.442-2.282-2.025-4.292-5.253-6.436c-4.566-2.866-13.322-4.65-16.458-3.355
		c-5.434,2.271-7.406,7.414-7.864,11.023c-0.46,3.606-0.969,8.528-4.378,14.364c-3.417,5.817-5.491,9.17-4.684,12.578
		c0.807,3.423,3.45,9.018,3.754,12.318c0.327,3.302-0.07,5.962-0.796,9.26c-0.717,3.291-1.18,5.725-0.15,7.902
		c1.029,2.189,1.532,2.655,1.793,2.947c0.259,0.326,0.429,0.857-0.339,0.326c-0.771-0.56-5.069-4.806-6.591-9.34
		c-1.548-4.533-0.079-10.936-0.702-13.17c-0.625-2.228-4.861-8.367-4.536-13.505c0.354-5.153,4.395-10.667,6.151-13.516
		c1.763-2.85,5.672-8.212,6.49-10.669c0.795-2.455,2.48-7.102,3.33-8.256c0,0-0.712,0.622-4.313,4.997
		c-3.609,4.385-6.823,7.535-7.79,11.54c-0.96,4-3.303,7.778-6.345,10.377c-3.01,2.611-1.203,6.101-0.205,10.338
		c0.995,4.208,1.692,5.719,4.009,9.943c2.299,4.211,1.204,7.634,1.475,8.218c0.263,0.562-1.762-3.117-2.791-3.924
		c-1.039-0.802-4.113-4.056-6.273-10.764c-2.148-6.723-4.697-11.308-0.31-17.96c4.36-6.635,4.79-12.855,5.372-15.15
		c0.565-2.311,0.358-5.468,5.691-8.198c5.339-2.702,9.413-3.358,13.366-4.71c3.945-1.339,8.004-4.754,9.855-5.987
		c1.983-1.331,8.772-1.523,11.397,2.11c2.973,4.11,18.27,5.382,20.422,8.226c2.475,3.275,0.737,6.937-0.567,8.367
		c-2.644,2.861-14.425,12.753-15.431,12.86C80.945,53.753,81.666,50.714,82.672,48.066z M114.967,41.89
		c-0.671,2.837-1.865,4.374-6.075,6.558c-2.503,1.308-21.865,5.482-22.191,5.565c-3.189,0.842-2.367-0.721-0.915-1.853
		c1.464-1.099,3.273-2.591,7.868-5.437c4.6-2.85,6.605-4.048,8.365-6.061c3.173-3.61,1.142-11.497-8.001-14.467
		c-5.408-1.267-10.798,0.212-15.2-2.887c-0.29-0.212-0.481-1.022,0.056-1.048c4.93-0.244,11.01-1.605,15.963,0.047
		c0.444,0.05,10.286,4.979,14.397,9.71C111.274,34.349,115.608,39.041,114.967,41.89z"/>
	<path fill="#CC6600" d="M109.877,56.345c0.656,0.633,8.108,11.616,8.513,12.484c2.105,4.546,3.383,8.585,2.606,12.643
		c-0.777,3.981-3.501,7.378-6.445,10.105c1.667-0.826,4.127-2.156,5.33-3.286c1.481-1.368,8.214-10.918,3.323-19.342
		C120.688,63.353,111.12,56.55,109.877,56.345z"/>
</g>
<g>
	<path fill="#CC6600" d="M79.613,151.902c-0.768,0-1.299,0.229-1.593,0.684c-0.294,0.457-0.441,1.23-0.441,2.322
		s0.138,1.878,0.414,2.358c0.276,0.479,0.816,0.72,1.62,0.72c0.804,0,1.344-0.24,1.62-0.72c0.276-0.48,0.414-1.267,0.414-2.358
		s-0.147-1.865-0.441-2.322C80.912,152.131,80.381,151.902,79.613,151.902z"/>
	<path fill="#CC6600" d="M65.231,150.553c0-1.141-0.612-1.71-1.836-1.71h-2.574v3.527h2.646
		C64.643,152.37,65.231,151.765,65.231,150.553z"/>
	<path fill="#CC6600" d="M64.943,154.468c-0.384-0.271-0.864-0.405-1.44-0.405h-2.682v3.654h2.718c0.66,0,1.155-0.139,1.485-0.414
		c0.33-0.276,0.495-0.75,0.495-1.423C65.52,155.208,65.327,154.737,64.943,154.468z"/>
	<path fill="#CC6600" d="M107.045,151.866c-0.672,0-1.161,0.187-1.467,0.559s-0.465,0.983-0.478,1.836h3.799
		c0-0.889-0.142-1.51-0.424-1.863C108.194,152.044,107.717,151.866,107.045,151.866z"/>
	<path fill="#CC6600" d="M133.75,137.2h-98c-8.975,0-16.25,7.275-16.25,16.25c0,8.975,7.275,16.25,16.25,16.25h98
		c8.975,0,16.25-7.275,16.25-16.25C150,144.475,142.725,137.2,133.75,137.2z M63.647,159.444h-4.824v-12.33h4.68
		c1.26,0,2.202,0.255,2.826,0.765c0.624,0.511,0.936,1.323,0.936,2.439c0,0.732-0.117,1.308-0.351,1.728
		c-0.234,0.421-0.603,0.769-1.107,1.045c1.176,0.456,1.764,1.41,1.764,2.861C67.571,158.28,66.263,159.444,63.647,159.444z
		 M74.609,152.208c-1.032,0.204-1.914,0.469-2.646,0.792l-0.396,0.162v6.282h-1.962v-9h1.944v1.08c1.02-0.66,2.04-1.086,3.06-1.278
		V152.208z M82.727,158.454c-0.6,0.792-1.638,1.188-3.114,1.188s-2.514-0.396-3.114-1.188s-0.9-1.968-0.9-3.527
		c0-1.561,0.309-2.73,0.927-3.511c0.618-0.779,1.647-1.17,3.087-1.17s2.469,0.391,3.087,1.17c0.618,0.78,0.927,1.95,0.927,3.511
		C83.627,156.486,83.327,157.662,82.727,158.454z M93.113,159.444H91.17v-4.77c0-0.973-0.105-1.662-0.315-2.07
		s-0.639-0.612-1.287-0.612c-0.612,0-1.2,0.12-1.764,0.36l-0.271,0.107v6.984h-1.962v-9h1.944v0.558
		c0.876-0.504,1.704-0.756,2.484-0.756c1.199,0,2.019,0.34,2.457,1.018c0.438,0.678,0.656,1.797,0.656,3.356V159.444z
		 M101.627,152.19l-4.319,5.508h4.319v1.746h-6.678v-1.746l4.338-5.508h-4.338v-1.746h6.678V152.19z M110.699,155.772h-5.58
		c0.012,0.744,0.174,1.29,0.486,1.638c0.312,0.349,0.894,0.522,1.745,0.522c0.853,0,1.729-0.036,2.629-0.108l0.504-0.054
		l0.036,1.458c-1.368,0.275-2.581,0.414-3.637,0.414c-1.332,0-2.289-0.366-2.871-1.099c-0.582-0.731-0.873-1.901-0.873-3.51
		c0-3.191,1.303-4.788,3.906-4.788c2.521,0,3.78,1.374,3.78,4.122L110.699,155.772z"/>
</g>
</svg>
