<?xml version="1.0" encoding="utf-8"?>
<!-- Generator: Adobe Illustrator 17.0.0, SVG Export Plug-In . SVG Version: 6.00 Build 0)  -->
<!DOCTYPE svg PUBLIC "-//W3C//DTD SVG 1.1//EN" "http://www.w3.org/Graphics/SVG/1.1/DTD/svg11.dtd">
<svg version="1.1" id="Layer_1" xmlns="http://www.w3.org/2000/svg" xmlns:xlink="http://www.w3.org/1999/xlink" x="0px" y="0px"
	 width="170px" height="170px" viewBox="0 0 170 170" enable-background="new 0 0 170 170" xml:space="preserve">
<g>
	<path fill="#FFCC00" d="M82.176,91.068c0,0,10.991-4.183,12.3-7.797c0.99-2.746,0.481-6.681,0.165-7.424
		C94.317,75.099,85.267,89.259,82.176,91.068z"/>
	<path fill="#FFCC00" d="M93.987,100.268c0,0,9.728-7.523,12.341-18.425c1.626-6.88-6.599-22.453-6.314-21.748
		c4.672,11.838,0.023,28.067-0.667,29.664C98.655,91.341,93.987,100.268,93.987,100.268z"/>
	<path fill="#FFCC00" d="M85.902,107.463c1.989-1.019,2.196-1.084,2.513-1.34c0.307-0.263,0.433-0.509-1.343-0.06
		c-1.804,0.446-8.638,2.667-11.46,4.66c-2.824,1.991-4.094,3.721-4.094,3.721s0.383-2.953,2.684-5.44
		c2.321-2.495,2.571-2.749,3.012-3.079c0.446-0.31,0.259-0.56-0.509-0.126c-0.766,0.457-4.429,4.173-5.767,6.14
		c-1.337,1.988-2.051,3.075-6.395,3.784c-4.341,0.699-8.252,1.664-9.965,3.262c-1.735,1.588-2.431,3.2-2.431,3.2
		s-0.152,0.186-0.315,0.282c2.419,1.4,4.937,2.646,7.54,3.73c2.659-2.291,5.437-4.583,8.385-6.768
		C76.954,112.641,83.929,108.488,85.902,107.463z"/>
	<path fill="#FFCC00" d="M133.733,73.56c-0.312,2.698-1.268,9.213-7.424,15.364c-1.435,1.446-2.44,2.59-3.987,3.431
		c2.068-0.354,4.274-0.639,6.554-0.744C131.556,87.792,134.89,79.403,133.733,73.56z"/>
	<path fill="#FFCC00" d="M84.333,1.164c-35.899,0-65,29.101-65,65c0,23.902,12.903,44.787,32.122,56.079
		c-0.012-0.07-0.021-0.151-0.021-0.256c0-1.094,0.71-5.82,5.764-9.601c5.039-3.771,7.408-5.502,8.301-6.133
		c0.902-0.641,0.853-0.89,0.134-0.833c-0.711,0.052-6.47,1.153-9.068,3.195c-2.632,2.053-3.405,2.875-3.405,2.875
		s-0.711,0.203-0.453-1.083c0.264-1.283,1.501-5.182,4.875-7.351c3.366-2.184,6.901-3.332,6.901-3.332l0.134-3.313
		c0,0-7.176-3.708-8.768-4.992c-1.61-1.286-3.208-2.695-1.916-10.055c1.264-7.36,1.393-8.884,1.344-9.529
		c-0.079-0.632-2.956-2.94-2.258-7.115c0.709-4.144,2.307-6.506,2.307-6.506s-0.192,4.859-0.128,7.481
		c0.079,2.614,0.128,4.209,0.901,5.117c0.76,0.896,0.829,0.51,1.161,1.485c0.323,0.95-1.41,8.237-1.859,10.988
		c-0.444,2.751-1.419,5.306,0.698,5.063c2.111-0.269,1.539-0.78,2.111-1.409c0.581-0.649,1.733-0.903,2.618-0.649
		c0.9,0.258,1.41,0.705,2.311,0.448c0.896-0.262,3.323,0,1.921,1.717c-1.399,1.745-3.644,1.219-3.014,2.815
		c0.64,1.602,8.351,6.428,11.076,4.702c3.41-2.133,5.153-2.568,5.294-3.96c0.117-1.414-2.479-3.625-4.334-2.582
		c-1.857,1.009-5.05,2.106-6.913,1.717c-1.86-0.375-2.364-1.22-1.735-1.147c0.647,0.062,2.56,0.689,4.362-1.41
		c1.784-2.114,16.919-9.575,19.616-13.932c2.685-4.345-1.522-15.112,0.54-17.151c2.034-2.048,17.245-5.379,19.995-6.296
		c5.766-1.922,9.693-7.008,8.412-11.66c-0.716-2.577-4.526-7.032-8.254-9.309c-0.909-0.55,18.907,2.226,19.305,21.961
		c0.174,8.488,12.533,16.168,11.167,25.501c-1.036,6.965-8.075,12.395-10.806,13.88c1.723-0.047,3.494,0.014,5.276,0.21
		c3.015,0.331,5.9,2.289,5.9,2.289s-20.198,2.46-26.998,5.764c-11.04,5.354-25.059,12.036-40.799,24.169
		c-2.203,1.699-4.238,3.29-6.166,4.802c5.523,1.526,11.34,2.345,17.348,2.345c35.898,0,65-29.101,65-65S120.232,1.164,84.333,1.164z
		 M52.405,58.938c-0.323,0.436,6.248-13.886,6.601-15.878c0.812-4.41,2.85-9.934,9.737-9.518c1.73,0.118,11.909,3.482,13.36,6.363
		c1.442,2.88-2.883,11.248-4.137,11.399c-1.278,0.14-0.215-4.948-1.388-6.573c-1.697-2.334-8.239-3.515-10.59-1.159L52.405,58.938z
		 M75.76,69.221c-3.874,6.709-6.29,10.672-6.9,11.553c-0.616,0.874-1.381,1.571-1.274,0.799c0.123-0.755,1.157-3.789,1.307-5.48
		c0.153-1.685,0.308-3.272-0.912-2.943c-1.215,0.297-2.567,0.297-3.112-0.12c-0.548-0.417-0.585-0.894-0.044-0.94
		c0.539-0.035,2.993-0.717,4.036-1.607c1.025-0.866,1.541-1.685,1.773-2.221c0.231-0.534,0.221-0.887-0.708-0.414
		c-0.906,0.452-2.791,1.799-3.57,2.283c-0.756,0.513-2.362,0.931-2.446,1.243c-0.081,0.307,0.384,2.301,0.384,4.325
		c0,2.039-0.223,5.335-0.856,4.841c-0.615-0.49-0.338-1.916-1.288-2.835c-0.964-0.922-2.112-2.516-1.963-4.144
		c0.155-1.62,0.383-2.024,0.104-2.949c-0.27-0.922-0.298-2.24,0.503-2.395c0.804-0.144,1.118,0.702,3.001,0.39
		c1.762-0.289,3.643-1.418,5.064-2.521c1.424-1.124,3.872-3.801,5.223-4.081c1.341-0.266,2.227-0.151,3.287-1.486
		c1.074-1.352,2.343-2.587,2.973-3.04c0.61-0.466,1.192-1.024,1.421-0.87C81.996,56.751,79.648,62.498,75.76,69.221z M82.672,48.23
		c1.016-2.651,2.646-4.5,2.103-7.183c-0.442-2.282-2.025-4.292-5.253-6.436c-4.566-2.866-13.322-4.65-16.458-3.355
		c-5.434,2.271-7.406,7.414-7.864,11.023c-0.46,3.606-0.969,8.528-4.378,14.364c-3.417,5.817-5.491,9.17-4.684,12.578
		c0.807,3.423,3.45,9.018,3.754,12.318c0.327,3.302-0.07,5.962-0.796,9.26c-0.717,3.291-1.18,5.725-0.15,7.902
		c1.029,2.189,1.532,2.655,1.793,2.947c0.259,0.326,0.429,0.857-0.339,0.326c-0.771-0.56-5.069-4.806-6.591-9.34
		c-1.548-4.533-0.079-10.936-0.702-13.17c-0.625-2.228-4.861-8.367-4.536-13.505c0.354-5.153,4.395-10.667,6.151-13.516
		c1.763-2.85,5.672-8.212,6.49-10.669c0.795-2.455,2.48-7.102,3.33-8.256c0,0-0.712,0.622-4.313,4.997
		c-3.609,4.385-6.823,7.535-7.79,11.54c-0.96,4-3.303,7.778-6.345,10.377c-3.01,2.611-1.203,6.101-0.205,10.338
		c0.995,4.208,1.692,5.719,4.009,9.943c2.299,4.211,1.204,7.634,1.475,8.218c0.263,0.562-1.762-3.117-2.791-3.924
		c-1.039-0.802-4.113-4.056-6.273-10.764c-2.148-6.723-4.697-11.308-0.31-17.96c4.36-6.635,4.79-12.855,5.372-15.15
		c0.565-2.311,0.358-5.468,5.691-8.198c5.339-2.702,9.413-3.358,13.366-4.71c3.945-1.339,8.004-4.754,9.855-5.987
		c1.983-1.331,8.772-1.523,11.397,2.11c2.973,4.11,18.27,5.382,20.422,8.226c2.475,3.275,0.737,6.937-0.567,8.367
		c-2.644,2.861-14.425,12.753-15.431,12.86C80.945,53.917,81.666,50.878,82.672,48.23z M114.967,42.054
		c-0.671,2.837-1.865,4.374-6.075,6.558c-2.503,1.308-21.865,5.482-22.191,5.565c-3.189,0.842-2.367-0.721-0.915-1.853
		c1.464-1.099,3.273-2.591,7.868-5.437c4.6-2.85,6.605-4.048,8.365-6.061c3.173-3.61,1.142-11.497-8.001-14.467
		c-5.408-1.267-10.798,0.212-15.2-2.887c-0.29-0.212-0.481-1.022,0.056-1.048c4.93-0.244,11.01-1.605,15.963,0.047
		c0.444,0.05,10.286,4.979,14.397,9.71C111.274,34.513,115.608,39.205,114.967,42.054z"/>
	<path fill="#FFCC00" d="M109.877,56.509c0.656,0.633,8.108,11.616,8.513,12.484c2.105,4.546,3.383,8.585,2.606,12.643
		c-0.777,3.981-3.501,7.378-6.445,10.105c1.667-0.826,4.127-2.156,5.33-3.286c1.481-1.368,8.214-10.918,3.323-19.342
		C120.688,63.517,111.12,56.714,109.877,56.509z"/>
</g>
<g>
	<path fill="#FFCC00" d="M94.958,155.126c0,1.104,0.141,1.869,0.423,2.296c0.282,0.426,0.729,0.639,1.341,0.639
		s1.194-0.108,1.746-0.324l0.306-0.126v-5.328c-0.72-0.12-1.386-0.18-1.998-0.18C95.563,152.102,94.958,153.11,94.958,155.126z"/>
	<path fill="#FFCC00" d="M133.75,137.364h-98c-8.975,0-16.25,7.275-16.25,16.25c0,8.975,7.275,16.25,16.25,16.25h98
		c8.975,0,16.25-7.275,16.25-16.25C150,144.639,142.725,137.364,133.75,137.364z M70.649,157.061
		c0.402,0.666,1.215,0.999,2.439,0.999c0.875,0,1.53-0.054,1.962-0.162v-3.006h-1.53v-1.765h3.51v6.265
		c-0.324,0.084-0.981,0.174-1.971,0.27c-0.99,0.097-1.707,0.145-2.151,0.145c-1.872,0-3.162-0.516-3.87-1.548
		s-1.062-2.649-1.062-4.852s0.363-3.807,1.089-4.814c0.726-1.009,1.983-1.513,3.771-1.513c1.056,0,2.244,0.12,3.564,0.36l0.63,0.126
		l-0.072,1.584c-1.452-0.191-2.754-0.288-3.906-0.288s-1.941,0.324-2.367,0.972c-0.426,0.648-0.639,1.849-0.639,3.601
		S70.247,156.395,70.649,157.061z M85.994,158.618c-0.601,0.792-1.638,1.188-3.114,1.188s-2.514-0.396-3.114-1.188
		s-0.9-1.968-0.9-3.527c0-1.561,0.309-2.73,0.927-3.511c0.618-0.779,1.647-1.17,3.087-1.17s2.469,0.391,3.087,1.17
		c0.618,0.78,0.928,1.95,0.928,3.511C86.895,156.65,86.594,157.826,85.994,158.618z M90.908,159.608h-1.962v-12.744h1.962V159.608z
		 M100.736,159.608h-1.944v-0.468c-0.876,0.444-1.681,0.666-2.412,0.666c-1.176,0-2.037-0.354-2.583-1.062s-0.819-1.896-0.819-3.563
		s0.304-2.88,0.909-3.637c0.605-0.756,1.551-1.134,2.835-1.134c0.433,0,1.116,0.078,2.052,0.234v-3.78h1.963V159.608z"/>
	<path fill="#FFCC00" d="M82.88,152.066c-0.768,0-1.299,0.229-1.593,0.684c-0.294,0.457-0.441,1.23-0.441,2.322
		s0.138,1.878,0.414,2.358c0.276,0.479,0.816,0.72,1.62,0.72c0.804,0,1.344-0.24,1.62-0.72c0.276-0.48,0.414-1.267,0.414-2.358
		s-0.147-1.865-0.441-2.322C84.179,152.295,83.647,152.066,82.88,152.066z"/>
</g>
</svg>
